<svg width="20" height="20" viewBox="0 0 20 20" fill="none" xmlns="http://www.w3.org/2000/svg">
<g id="icons/solid/ic-checkbox-off">
<path id="primary-shape" fill-rule="evenodd" clip-rule="evenodd" d="M5.83329 1.66667C3.53211 1.66667 1.66663 3.53215 1.66663 5.83334V14.1667C1.66663 16.4679 3.53211 18.3333 5.83329 18.3333H14.1666C16.4678 18.3333 18.3333 16.4679 18.3333 14.1667V5.83334C18.3333 3.53215 16.4678 1.66667 14.1666 1.66667H5.83329ZM6.24996 2.91667C4.40901 2.91667 2.91663 4.40906 2.91663 6.25001V13.75C2.91663 15.591 4.40901 17.0833 6.24996 17.0833H13.75C15.5909 17.0833 17.0833 15.591 17.0833 13.75V6.25001C17.0833 4.40906 15.5909 2.91667 13.75 2.91667H6.24996Z" fill="#637381"/>
</g>
</svg>
