<svg width="20" height="20" viewBox="0 0 16 16" fill="none" xmlns="http://www.w3.org/2000/svg">
<g id="icons/solid/ic-checkbox-on">
<path id="primary-shape" fill-rule="evenodd" clip-rule="evenodd" d="M1.71008 4.71393C1.71008 2.95639 3.13485 1.53162 4.89239 1.53162H11.257C13.0146 1.53162 14.4393 2.95639 14.4393 4.71393V11.0785C14.4393 12.8361 13.0146 14.2609 11.257 14.2609H4.89239C3.13485 14.2609 1.71008 12.8361 1.71008 11.0785V4.71393ZM11.012 6.93839L7.98878 9.96158C7.88058 10.0698 7.74056 10.1207 7.59417 10.1207C7.45415 10.1207 7.31413 10.0698 7.20593 9.96158L5.69115 8.45317C5.47475 8.23041 5.47475 7.88035 5.69115 7.66396C5.90755 7.44756 6.26397 7.44756 6.48036 7.66396L7.59417 8.77777L10.2228 6.14918C10.4392 5.93278 10.7956 5.93278 11.012 6.14918C11.2284 6.37194 11.2284 6.72199 11.012 6.93839Z" fill="#212B36"/>
</g>
</svg>
