<svg width="19" height="18" viewBox="0 0 19 18" fill="none" xmlns="http://www.w3.org/2000/svg">
<g id="icons/solid/ic-mingcute:close-line">
<path id="primary-shape" fill-rule="evenodd" clip-rule="evenodd" d="M9.49585 10.0563L13.7366 14.2973C13.8779 14.4339 14.0673 14.5095 14.2638 14.5078C14.4604 14.5061 14.6484 14.4272 14.7874 14.2882C14.9264 14.1492 15.0052 13.9612 15.0069 13.7646C15.0087 13.5681 14.9331 13.3787 14.7965 13.2373L10.5558 8.99628L14.7965 4.75528C14.9331 4.61389 15.0087 4.42452 15.0069 4.22795C15.0052 4.03138 14.9264 3.84335 14.7874 3.70435C14.6484 3.56535 14.4604 3.48651 14.2638 3.4848C14.0673 3.48309 13.8779 3.55866 13.7366 3.69522L9.49585 7.93622L5.25515 3.69522C5.11313 3.56203 4.92487 3.48933 4.7302 3.49249C4.53554 3.49565 4.34973 3.57443 4.21211 3.71216C4.07449 3.84989 3.99585 4.03576 3.99283 4.23044C3.9898 4.42512 4.06264 4.61335 4.19591 4.75528L8.43586 8.99628L4.19516 13.2373C4.12357 13.3064 4.06646 13.3892 4.02717 13.4806C3.98788 13.5721 3.9672 13.6705 3.96634 13.77C3.96547 13.8696 3.98444 13.9683 4.02213 14.0604C4.05982 14.1525 4.11549 14.2363 4.18587 14.3066C4.25626 14.377 4.33996 14.4327 4.43208 14.4704C4.52421 14.5081 4.62292 14.5271 4.72246 14.5262C4.822 14.5253 4.92036 14.5046 5.01182 14.4654C5.10328 14.4261 5.186 14.369 5.25515 14.2973L9.49585 10.0563Z" fill="white"/>
</g>
</svg>
