<svg width="25" height="24" viewBox="0 0 25 24" fill="none" xmlns="http://www.w3.org/2000/svg">
<g id="icons/solid/ic-eva:checkmark-circle-2-fill">
<path id="primary-shape" fill-rule="evenodd" clip-rule="evenodd" d="M2.5 12C2.5 6.47715 6.97715 2 12.5 2C15.1522 2 17.6957 3.05357 19.5711 4.92893C21.4464 6.8043 22.5 9.34784 22.5 12C22.5 17.5228 18.0228 22 12.5 22C6.97715 22 2.5 17.5228 2.5 12ZM12.23 15.61L16.8 9.61V9.58C17.0179 9.29419 17.0668 8.91382 16.9283 8.58218C16.7897 8.25054 16.4848 8.01801 16.1283 7.97218C15.7718 7.92635 15.4179 8.07419 15.2 8.36L11.42 13.36L9.79 11.28C9.57028 10.9978 9.21668 10.8542 8.86239 10.9033C8.50811 10.9525 8.20696 11.1869 8.07239 11.5183C7.93783 11.8497 7.99028 12.2278 8.21 12.51L10.65 15.62C10.8408 15.8615 11.1322 16.0017 11.44 16C11.7495 15.9993 12.0412 15.8552 12.23 15.61Z" fill="white"/>
</g>
</svg>
