<svg width="20" height="20" viewBox="0 0 20 20" fill="none" xmlns="http://www.w3.org/2000/svg">
<g id="action" opacity="0.48">
<path id="primary-shape" fill-rule="evenodd" clip-rule="evenodd" d="M18.3334 10C18.3334 14.6025 14.6026 18.3333 10.0001 18.3333C5.39758 18.3333 1.66675 14.6025 1.66675 10C1.66675 5.39751 5.39758 1.66667 10.0001 1.66667C14.6026 1.66667 18.3334 5.39751 18.3334 10ZM7.47508 7.47501C7.59227 7.35796 7.75112 7.29222 7.91675 7.29222C8.08237 7.29222 8.24123 7.35796 8.35841 7.47501L10.0001 9.11667L11.6417 7.47501C11.7602 7.36461 11.9169 7.3045 12.0789 7.30736C12.2408 7.31022 12.3953 7.37581 12.5098 7.49032C12.6243 7.60483 12.6899 7.75932 12.6927 7.92124C12.6956 8.08315 12.6355 8.23986 12.5251 8.35834L10.8834 10L12.5251 11.6417C12.6355 11.7602 12.6956 11.9169 12.6927 12.0788C12.6899 12.2407 12.6243 12.3952 12.5098 12.5097C12.3953 12.6242 12.2408 12.6898 12.0789 12.6927C11.9169 12.6955 11.7602 12.6354 11.6417 12.525L10.0001 10.8833L8.35841 12.525C8.23994 12.6354 8.08323 12.6955 7.92131 12.6927C7.7594 12.6898 7.60491 12.6242 7.4904 12.5097C7.37589 12.3952 7.31029 12.2407 7.30744 12.0788C7.30458 11.9169 7.36468 11.7602 7.47508 11.6417L9.11675 10L7.47508 8.35834C7.35804 8.24115 7.2923 8.0823 7.2923 7.91667C7.2923 7.75105 7.35804 7.59219 7.47508 7.47501Z" fill="#212B36"/>
</g>
</svg>
