<svg width="20" height="20" viewBox="0 0 20 20" fill="none" xmlns="http://www.w3.org/2000/svg">
<g id="icons/ic-mingcute:close-line">
<path id="primary-shape" fill-rule="evenodd" clip-rule="evenodd" d="M9.99526 11.1737L14.7071 15.886C14.8642 16.0377 15.0746 16.1217 15.293 16.1198C15.5114 16.1179 15.7203 16.0303 15.8748 15.8758C16.0292 15.7214 16.1168 15.5124 16.1187 15.294C16.1206 15.0756 16.0366 14.8652 15.8849 14.7081L11.173 9.99588L15.8849 5.28366C16.0366 5.12655 16.1206 4.91614 16.1187 4.69773C16.1168 4.47932 16.0292 4.2704 15.8748 4.11596C15.7203 3.96151 15.5114 3.87391 15.293 3.87201C15.0746 3.87011 14.8642 3.95407 14.7071 4.10581L9.99526 8.81803L5.28337 4.10581C5.12557 3.95782 4.91639 3.87704 4.70009 3.88055C4.48379 3.88407 4.27735 3.9716 4.12443 4.12463C3.97152 4.27766 3.88414 4.48418 3.88078 4.7005C3.87742 4.91681 3.95835 5.12595 4.10643 5.28366L8.81749 9.99588L4.1056 14.7081C4.02605 14.7849 3.96259 14.8769 3.91894 14.9785C3.87529 15.0801 3.85231 15.1894 3.85135 15.3C3.85039 15.4106 3.87146 15.5203 3.91334 15.6227C3.95522 15.7251 4.01707 15.8181 4.09528 15.8963C4.17348 15.9745 4.26648 16.0363 4.36885 16.0782C4.47121 16.1201 4.58089 16.1412 4.69149 16.1402C4.80208 16.1393 4.91138 16.1163 5.013 16.0726C5.11462 16.029 5.20653 15.9655 5.28337 15.886L9.99526 11.1737Z" fill="#637381"/>
</g>
</svg>
