<svg width="21" height="20" viewBox="0 0 21 20" fill="none" xmlns="http://www.w3.org/2000/svg">
<g id="icons/ic_google">
<path id="shape" d="M5.65152 10.1773C5.65152 9.63679 5.7413 9.11858 5.90152 8.63253L3.09698 6.49088C2.55039 7.60066 2.24243 8.85116 2.24243 10.1773C2.24243 11.5023 2.55001 12.7521 3.09584 13.8611L5.89887 11.7153C5.74016 11.2315 5.65152 10.7152 5.65152 10.1773Z" fill="#FBBC05"/>
<path id="shape_2" d="M10.5758 5.26004C11.75 5.26004 12.8106 5.67612 13.644 6.35697L16.0682 3.93617C14.5909 2.65012 12.697 1.85579 10.5758 1.85579C7.28259 1.85579 4.45229 3.7391 3.09698 6.49087L5.90153 8.63253C6.54774 6.67092 8.38979 5.26004 10.5758 5.26004Z" fill="#EB4335"/>
<path id="shape_3" d="M10.5758 15.0946C8.38979 15.0946 6.54774 13.6837 5.90153 11.7221L3.09698 13.8634C4.45229 16.6155 7.28259 18.4988 10.5758 18.4988C12.6083 18.4988 14.5489 17.7771 16.0053 16.4249L13.3432 14.3668C12.5921 14.84 11.6462 15.0946 10.5758 15.0946Z" fill="#34A853"/>
<path id="shape_4" d="M18.5303 10.1773C18.5303 9.68558 18.4545 9.15603 18.3409 8.66431H10.5757V11.8794H15.0454C14.822 12.9756 14.2136 13.8183 13.3432 14.3668L16.0053 16.4249C17.5352 15.0049 18.5303 12.8897 18.5303 10.1773Z" fill="#4285F4"/>
</g>
</svg>
