<svg width="21" height="20" viewBox="0 0 21 20" fill="none" xmlns="http://www.w3.org/2000/svg">
<g id="icons/solid/ic-mingcute:filter-2-fill">
<path id="primary-shape" d="M12.1667 13.75C12.4877 13.7502 12.7963 13.8738 13.0287 14.0953C13.261 14.3169 13.3992 14.6193 13.4146 14.9399C13.43 15.2606 13.3215 15.5749 13.1115 15.8177C12.9015 16.0605 12.6062 16.2132 12.2867 16.2442L12.1667 16.25H8.83334C8.51233 16.2498 8.20368 16.1262 7.97135 15.9047C7.73903 15.6831 7.60083 15.3807 7.58541 15.0601C7.56998 14.7394 7.6785 14.4251 7.88849 14.1823C8.09848 13.9395 8.39383 13.7868 8.71334 13.7558L8.83334 13.75H12.1667ZM14.6667 8.75C14.9982 8.75 15.3161 8.8817 15.5506 9.11612C15.785 9.35054 15.9167 9.66848 15.9167 10C15.9167 10.3315 15.785 10.6495 15.5506 10.8839C15.3161 11.1183 14.9982 11.25 14.6667 11.25H6.33334C6.00182 11.25 5.68388 11.1183 5.44946 10.8839C5.21504 10.6495 5.08334 10.3315 5.08334 10C5.08334 9.66848 5.21504 9.35054 5.44946 9.11612C5.68388 8.8817 6.00182 8.75 6.33334 8.75H14.6667ZM17.1667 3.75C17.4982 3.75 17.8161 3.8817 18.0506 4.11612C18.285 4.35054 18.4167 4.66848 18.4167 5C18.4167 5.33152 18.285 5.64946 18.0506 5.88388C17.8161 6.1183 17.4982 6.25 17.1667 6.25H3.83334C3.50182 6.25 3.18388 6.1183 2.94946 5.88388C2.71504 5.64946 2.58334 5.33152 2.58334 5C2.58334 4.66848 2.71504 4.35054 2.94946 4.11612C3.18388 3.8817 3.50182 3.75 3.83334 3.75H17.1667Z" fill="#212B36"/>
</g>
</svg>
