<svg width="20" height="20" viewBox="0 0 20 20" fill="none" xmlns="http://www.w3.org/2000/svg">
<g id="icons/solid/ic-radio-on">
<g id="primary-shape">
<path d="M9.99996 15C7.23854 15 4.99996 12.7614 4.99996 9.99999C4.99996 7.23857 7.23854 4.99999 9.99996 4.99999C12.7614 4.99999 15 7.23857 15 9.99999C15 12.7614 12.7614 15 9.99996 15Z" fill="#212B36"/>
<path fill-rule="evenodd" clip-rule="evenodd" d="M1.66663 9.99999C1.66663 14.6024 5.39759 18.3333 9.99996 18.3333C14.6023 18.3333 18.3333 14.6024 18.3333 9.99999C18.3333 5.39762 14.6023 1.66666 9.99996 1.66666C5.39759 1.66666 1.66663 5.39762 1.66663 9.99999ZM2.91663 9.99999C2.91663 6.08797 6.08794 2.91666 9.99996 2.91666C13.912 2.91666 17.0833 6.08797 17.0833 9.99999C17.0833 13.912 13.912 17.0833 9.99996 17.0833C6.08794 17.0833 2.91663 13.912 2.91663 9.99999Z" fill="#212B36"/>
</g>
</g>
</svg>
