<svg width="25" height="24" viewBox="0 0 25 24" fill="none" xmlns="http://www.w3.org/2000/svg">
<g id="icons/ic_eye">
<g id="shape">
<path d="M13.9999 12C13.9999 12.8284 13.3283 13.5 12.4999 13.5C11.6715 13.5 10.9999 12.8284 10.9999 12C10.9999 11.1716 11.6715 10.5 12.4999 10.5C13.3283 10.5 13.9999 11.1716 13.9999 12Z" fill="#637381"/>
<path fill-rule="evenodd" clip-rule="evenodd" d="M12.2299 5C18.2099 4.82 21.7299 10.39 22.3699 11.5C22.5485 11.8094 22.5485 12.1906 22.3699 12.5C21.5099 14 18.2999 18.86 12.7699 19H12.5199C6.62989 19 3.25989 13.59 2.62989 12.5C2.45125 12.1906 2.45125 11.8094 2.62989 11.5C3.49989 10 6.69988 5.14 12.2299 5ZM8.99989 12C8.99989 13.933 10.5669 15.5 12.4999 15.5C14.4329 15.5 15.9999 13.933 15.9999 12C15.9999 10.067 14.4329 8.5 12.4999 8.5C10.5669 8.5 8.99989 10.067 8.99989 12Z" fill="#637381"/>
</g>
</g>
</svg>
