<svg width="40" height="40" viewBox="0 0 40 40" fill="none" xmlns="http://www.w3.org/2000/svg">
<g id="Subtract">
<path fill-rule="evenodd" clip-rule="evenodd" d="M8.47055 20C9.16164 20.8241 10.052 21.8033 11.0957 22.775C13.8139 25.3056 16.9662 27.2222 19.9999 27.2222C23.0336 27.2222 26.1859 25.3056 28.9041 22.775C29.9478 21.8033 30.8382 20.8241 31.5293 20C30.8382 19.1759 29.9478 18.1967 28.9041 17.225C26.1859 14.6944 23.0336 12.7778 19.9999 12.7778C16.9662 12.7778 13.8139 14.6944 11.0957 17.225C10.052 18.1967 9.16164 19.1759 8.47055 20ZM19.9999 23.9986C22.2082 23.9986 23.9984 22.2083 23.9984 20C23.9984 17.7917 22.2082 16.0015 19.9999 16.0015C17.7915 16.0015 16.0013 17.7917 16.0013 20C16.0013 22.2083 17.7915 23.9986 19.9999 23.9986Z" fill="#212B36"/>
<path fill-rule="evenodd" clip-rule="evenodd" d="M40 7.33554C40 3.28423 36.7158 0 32.6645 0H7.33554C3.28423 0 0 3.28423 0 7.33554V32.6645C0 36.7158 3.28423 40 7.33554 40H32.6645C36.7158 40 40 36.7158 40 32.6645V7.33554ZM3.23496 19.5361L3.91239 19.9862C3.23496 19.5361 3.23478 19.5364 3.23496 19.5361L3.23731 19.5326L3.2423 19.5251L3.26012 19.4987C3.27547 19.476 3.29772 19.4434 3.32671 19.4015C3.38469 19.3177 3.46965 19.1966 3.58025 19.0436C3.80139 18.7377 4.1254 18.3037 4.54151 17.7841C5.37269 16.7464 6.57674 15.3608 8.06781 13.9727C11.0193 11.2248 15.2369 8.33414 19.9999 8.33414C24.7629 8.33414 28.9805 11.2248 31.932 13.9727C33.4231 15.3608 34.6271 16.7464 35.4583 17.7841C35.8744 18.3037 36.1984 18.7377 36.4195 19.0436C36.5301 19.1966 36.6151 19.3177 36.6731 19.4015C36.7021 19.4434 36.7243 19.476 36.7397 19.4987L36.7575 19.5251L36.7625 19.5326L36.7645 19.5356C36.7647 19.5359 36.7648 19.5361 36.0665 20C36.7648 20.4639 36.7647 20.4642 36.7645 20.4644L36.7625 20.4675L36.7575 20.4749L36.7397 20.5013C36.7243 20.524 36.7021 20.5566 36.6731 20.5985C36.6151 20.6823 36.5301 20.8034 36.4195 20.9564C36.1984 21.2623 35.8744 21.6964 35.4583 22.2159C34.6271 23.2537 33.4231 24.6392 31.932 26.0274C28.9805 28.7752 24.7629 31.6659 19.9999 31.6659C15.2369 31.6659 11.0193 28.7752 8.06781 26.0274C6.57674 24.6392 5.37269 23.2537 4.54151 22.2159C4.1254 21.6964 3.80139 21.2623 3.58025 20.9564C3.46965 20.8034 3.38469 20.6823 3.32671 20.5985C3.29772 20.5566 3.27547 20.524 3.26012 20.5013L3.2423 20.4749L3.23731 20.4675L3.2353 20.4644C3.23512 20.4642 3.23496 20.4639 3.91239 20.0139L3.2353 20.4644L2.92676 20L3.23496 19.5361ZM36.0665 20L36.7645 19.5356L37.073 20L36.7645 20.4644L36.0665 20Z" fill="#212B36"/>
</g>
</svg>
