<svg width="25" height="24" viewBox="0 0 25 24" fill="none" xmlns="http://www.w3.org/2000/svg">
<g id="icons/solid/ic-ic:round-vpn-key">
<path id="primary-shape" d="M13.15 9.99999C12.6675 8.62978 11.7042 7.48122 10.4388 6.76763C9.17351 6.05404 7.6922 5.82392 6.27002 6.11999C3.98002 6.57999 2.12002 8.40999 1.64002 10.7C1.4465 11.5771 1.45217 12.4864 1.65661 13.361C1.86106 14.2357 2.25906 15.0533 2.82133 15.7537C3.3836 16.4542 4.09581 17.0196 4.90552 17.4083C5.71523 17.7971 6.60182 17.9993 7.50002 18C8.73996 18 9.94936 17.6153 10.9614 16.8988C11.9734 16.1824 12.7381 15.1695 13.15 14H17.5V16C17.5 17.1 18.4 18 19.5 18C20.6 18 21.5 17.1 21.5 16V14C22.6 14 23.5 13.1 23.5 12C23.5 10.9 22.6 9.99999 21.5 9.99999H13.15ZM7.50002 14C6.40002 14 5.50002 13.1 5.50002 12C5.50002 10.9 6.40002 9.99999 7.50002 9.99999C8.60002 9.99999 9.50002 10.9 9.50002 12C9.50002 13.1 8.60002 14 7.50002 14Z" fill="white"/>
</g>
</svg>
