<svg version="1.0" xmlns="http://www.w3.org/2000/svg" width="25" height="24" viewBox="0 0 225 225"><path d="M92 10.4c-38.2 8-68.6 36.3-79.6 74.1-3.8 12.9-4.5 35.8-1.5 49.3 2.5 11.6 7.6 24 13.7 34 6.5 10.7 23.4 27.2 34.2 33.6 30.4 18 68.2 19.5 99.6 3.9 11.6-5.7 17.7-10.2 28.1-20.8 13.6-13.8 21.9-28.4 27.1-48 2.8-10.5 2.6-39-.4-49.7-10.1-36.8-36.1-63.4-72.8-74.4-7.8-2.3-11-2.7-25.4-3-11.2-.2-18.6.1-23 1zm47.3 8c14.5 4.3 28.4 12.1 39.4 22 12 10.8 24.1 30.9 28.4 47.1 2.9 11.3 3.6 30.2 1.5 42.3-5.2 30.1-25.1 56.3-53.1 70.2-15.7 7.8-22.8 9.4-43 9.4-14.9.1-18-.2-25-2.2-28.4-8.2-50.9-27-63.1-52.7-7.5-15.8-8.9-22.4-8.9-42 0-20 1.5-26.7 9.5-43 13.4-27.4 37.6-46 69-53 4.6-1 10.9-1.4 21.5-1.1 12.7.3 16.4.8 23.8 3z" fill="white"/><path d="M105.7 58.3C96.6 61.2 91 69 91 79c0 20.7 24.2 29.7 38.1 14.3 10.5-11.6 4.5-31.4-10.7-35.2-5.2-1.3-7.8-1.3-12.7.2zm13.9 6.7c6.8 3.4 10.1 10.4 8.2 17.7-2.6 10.2-13.8 15.2-22.7 10.2-11.2-6.2-11.3-21.3-.1-27.8 4.5-2.6 9.3-2.6 14.6-.1zM100 114.6c-16.6 4.5-28 19.1-31.9 41.1-1.3 7.1-.7 9.5 2.3 9.1 1.7-.3 2.3-1.6 3.7-8.3 4-19.3 11.9-30.5 24.6-35.1 6.1-2.1 22.1-1.8 28.6.6 11.1 4.2 19.8 16.8 23.2 33.4 1.8 9.2 2 9.6 4.5 9.6s2.9-1.7 1.9-7.9c-3.9-24.8-16.7-39.9-36.6-43.1-7.9-1.3-13.8-1.1-20.3.6z" fill="white"/></svg>